<svg width="48" height="48" viewBox="0 0 29 17" fill="none" xmlns="http://www.w3.org/2000/svg">
<path fill-rule="evenodd" clip-rule="evenodd" d="M25.8128 11.8321C25.8128 11.8321 28.1574 14.1477 28.7374 15.2193C28.7494 15.2343 28.7583 15.2515 28.7635 15.27C28.9994 15.6654 29.0588 15.9771 28.9419 16.2053C28.7461 16.5837 28.0835 16.7737 27.8587 16.7896H23.7146C23.4261 16.7896 22.8258 16.7142 22.095 16.2096C21.5367 15.8196 20.9814 15.1772 20.4434 14.5494C19.6401 13.617 18.9456 12.8079 18.2423 12.8079C18.1536 12.809 18.0656 12.8237 17.9813 12.8514C17.4492 13.0196 16.7735 13.778 16.7735 15.7978C16.7735 16.43 16.2747 16.7896 15.9252 16.7896H14.0272C13.3805 16.7896 10.0136 16.5634 7.02804 13.4155C3.36969 9.56138 0.0839864 1.82998 0.0520864 1.76183C-0.152364 1.26158 0.276836 0.988977 0.740836 0.988977H4.92554C5.48669 0.988977 5.66939 1.32828 5.79699 1.63278C5.94489 1.98223 6.49299 3.38003 7.39199 4.95038C8.84779 7.50528 9.74244 8.54493 10.4573 8.54493C10.5916 8.54512 10.7235 8.51012 10.8401 8.44343C11.7739 7.93013 11.5999 4.59513 11.5564 3.90783C11.5564 3.77443 11.5549 2.41868 11.0764 1.76328C10.7342 1.29348 10.1513 1.11078 9.79899 1.04408C9.89324 0.907777 10.0933 0.698977 10.35 0.575727C10.9894 0.256727 12.1451 0.210327 13.292 0.210327H13.9286C15.1727 0.227727 15.4946 0.307477 15.947 0.422027C16.8576 0.639527 16.875 1.22968 16.7952 3.23938C16.772 3.81358 16.7474 4.46028 16.7474 5.22153C16.7474 5.38393 16.7401 5.56518 16.7401 5.74933C16.7126 6.78028 16.6763 7.94173 17.4042 8.41878C17.4983 8.47832 17.6075 8.50953 17.7189 8.50868C17.9712 8.50868 18.7266 8.50868 20.7755 4.99243C21.6745 3.43948 22.3705 1.60813 22.4183 1.47038C22.4589 1.39353 22.5807 1.17748 22.7286 1.09048C22.8343 1.03573 22.9518 1.00785 23.0708 1.00928H27.9936C28.5301 1.00928 28.894 1.09048 28.9651 1.29348C29.084 1.62263 28.9419 2.62748 26.6944 5.66668C26.3159 6.17273 25.9839 6.61063 25.6924 6.99343C23.6552 9.66723 23.6552 9.80208 25.8128 11.8321Z" fill="white"/>
</svg>
